<svg width="90" height="90" fill="none" xmlns="http://www.w3.org/2000/svg"><path d="M4.07 4.453h81.76v81.005H4.07V4.453z" fill="url(#paint0_radial)"/><path d="M4.07 4.454h81.76v81.005H4.07V4.454zM.355 89.242h89.21V.67H.354v88.572zm63.11-45.878c1.894 0 2.573 0 2.752-.072 0-.273.071-.455.071-.637 0-2.038-.964-5.821-4.823-5.821-3.572 0-5.09 3.183-5.466 6.549h7.467v-.019zm-7.537 5.185c.071 5.112 2.447 8.55 8.11 8.55 2.197 0 4.09-.31 6.055-1.165.268-.109.447-.072.447.273v4.73c0 .382-.107.564-.375.764-1.965.982-4.43 1.437-7.467 1.437-9.807 0-13.487-7.386-13.487-15.59 0-8.931 4.537-16.244 12.522-16.244 8.11 0 10.933 6.93 10.933 12.57 0 1.819-.108 3.292-.304 4.02-.072.31-.179.418-.482.491-.75.11-2.93.273-6.199.273h-9.735v-.11h-.018zm-19.936-3.857c-1.036-4.202-3.573-13.352-4.501-17.79h-.072c-.786 4.42-2.822 11.915-4.34 17.79h8.913zm-10.432 6.13l-2.93 11.316c-.071.309-.178.418-.553.418h-5.485c-.375 0-.446-.11-.375-.564L26.775 24.41c.178-.673.303-1.218.375-3.11 0-.273.107-.382.303-.382h7.807c.268 0 .375.072.446.382l11.808 40.766c.071.31 0 .491-.304.491h-6.127c-.303 0-.482-.11-.554-.382l-3.054-11.351H25.56z" fill="#D8A1FF"/><defs><radialGradient id="paint0_radial" cx="0" cy="0" r="1" gradientUnits="userSpaceOnUse" gradientTransform="matrix(62.1407 0 0 61.2673 31.023 22.614)"><stop stop-color="#442F55" stop-opacity=".98"/><stop offset="1" stop-color="#12002C"/></radialGradient></defs></svg>