<svg width="59" height="90" fill="none" xmlns="http://www.w3.org/2000/svg"><g clip-path="url(#clip0)"><path d="M15.051 89.661c8.039 0 14.559-6.64 14.559-14.826V60.01H15.051C7.013 60.01.493 66.65.493 74.835c0 8.186 6.52 14.826 14.558 14.826z" fill="#0ACF83"/><path d="M.493 45.166c0-8.186 6.52-14.826 14.558-14.826H29.61v29.67H15.051C7.013 59.99.493 53.351.493 45.165z" fill="#A259FF"/><path d="M.493 15.496C.493 7.31 7.013.67 15.05.67h14.56v29.67H15.051C7.013 30.34.493 23.681.493 15.496z" fill="#F24E1E"/><path d="M29.628.67h14.559c8.038 0 14.558 6.64 14.558 14.826S52.225 30.32 44.187 30.32h-14.56V.67z" fill="#FF7262"/><path d="M58.745 45.166c0 8.186-6.52 14.825-14.558 14.825-8.039 0-14.56-6.64-14.56-14.825 0-8.186 6.521-14.826 14.56-14.826 8.038 0 14.558 6.64 14.558 14.826z" fill="#1ABCFE"/></g><defs><clipPath id="clip0"><path fill="#fff" transform="translate(.493 .67)" d="M0 0h58.252v88.991H0z"/></clipPath></defs></svg>