<svg width="90" height="90" fill="none" xmlns="http://www.w3.org/2000/svg"><path d="M4.003 4.453h81.76v81.005H4.004V4.453z" fill="url(#paint0_radial)"/><path d="M4.003 4.454h81.76v81.005H4.004V4.454zM.288 89.242h89.21V.67H.287v88.572zm58.43-56.992c0-.31.108-.455.447-.455h5.842c.303 0 .446.109.446.455v29.87c0 .309-.071.454-.446.454h-5.77c-.375 0-.483-.182-.483-.491V32.25h-.035zm-.41-8.605c0-2.42 1.68-3.856 3.787-3.856 2.269 0 3.787 1.546 3.787 3.856 0 2.492-1.59 3.857-3.859 3.857-2.143.018-3.715-1.346-3.715-3.857zm-16.72 21.047c-1.036-4.202-3.501-13.352-4.43-17.79h-.072c-.786 4.42-2.75 11.915-4.305 17.79h8.807zm-10.325 6.13l-2.93 11.352c-.071.31-.178.382-.553.382h-5.467c-.375 0-.446-.11-.375-.564l10.557-37.62c.18-.672.304-1.29.376-3.146 0-.273.107-.382.303-.382h7.806c.269 0 .376.073.447.382l11.826 40.839c.071.31 0 .491-.304.491h-6.163c-.304 0-.482-.073-.554-.346l-3.054-11.387H31.263z" fill="#FF7F18"/><defs><radialGradient id="paint0_radial" cx="0" cy="0" r="1" gradientUnits="userSpaceOnUse" gradientTransform="matrix(62.1406 0 0 61.2673 30.958 22.63)"><stop stop-color="#423325" stop-opacity=".98"/><stop offset="1" stop-color="#1C0A00"/></radialGradient></defs></svg>