<svg width="90" height="90" fill="none" xmlns="http://www.w3.org/2000/svg"><path d="M3.934 4.426H85.6V85.28H3.934V4.426z" fill="url(#paint0_radial)"/><path d="M3.934 4.426H85.6V85.28H3.934V4.426zM.221 89.06h89.073V.646H.221V89.06zm60.067-52.13c-2.928 0-3.927 1.508-3.927 2.762 0 1.363.66 2.307 4.605 4.379 5.82 2.87 7.64 5.632 7.64 9.666 0 6.05-4.534 9.303-10.657 9.303-3.23 0-6.015-.672-7.604-1.617-.268-.11-.303-.31-.303-.6v-5.578c0-.382.178-.49.446-.309a13.66 13.66 0 007.461 2.235c2.928 0 4.16-1.254 4.16-2.944 0-1.362-.858-2.561-4.606-4.542-5.266-2.562-7.462-5.16-7.462-9.52 0-4.87 3.75-8.922 10.247-8.922 3.195 0 5.426.49 6.64 1.054.303.182.375.49.375.763v5.178c0 .31-.179.49-.553.382-1.643-1.054-4.053-1.69-6.462-1.69zM28.37 41.42c.857.073 1.518.073 3 .073 4.337 0 8.424-1.545 8.424-7.559 0-4.797-2.927-7.213-7.872-7.213-1.481 0-2.891.073-3.57.109l.018 14.59zm-6.622-20.06c0-.272.517-.454.82-.454 2.375-.108 5.91-.181 9.569-.181 10.281 0 14.298 5.741 14.298 13.064 0 9.593-6.837 13.718-15.227 13.718-1.41 0-1.892-.073-2.891-.073v14.5c0 .308-.108.454-.447.454h-5.676c-.303 0-.446-.11-.446-.455V21.36z" fill="#31C5F0"/><defs><radialGradient id="paint0_radial" cx="0" cy="0" r="1" gradientUnits="userSpaceOnUse" gradientTransform="matrix(62.0565 0 0 61.1565 30.838 22.566)"><stop stop-color="#34364E" stop-opacity=".98"/><stop offset="1" stop-color="#0C0824"/></radialGradient></defs></svg>